<?xml version="1.0" encoding="UTF-8"?>
<svg id="Layer_2" data-name="Layer 2" xmlns="http://www.w3.org/2000/svg" xmlns:xlink="http://www.w3.org/1999/xlink" viewBox="0 0 101.95 106.7">
  <defs>
    <style>
      .cls-1 {
        fill: url(#linear-gradient);
      }

      .cls-1, .cls-2, .cls-3, .cls-4, .cls-5, .cls-6, .cls-7 {
        stroke-width: 0px;
      }

      .cls-2 {
        fill: url(#linear-gradient-4);
      }

      .cls-3 {
        fill: url(#linear-gradient-2);
      }

      .cls-4 {
        fill: url(#linear-gradient-3);
      }

      .cls-5 {
        fill: url(#linear-gradient-7);
      }

      .cls-6 {
        fill: url(#linear-gradient-5);
      }

      .cls-7 {
        fill: url(#linear-gradient-6);
      }
    </style>
    <linearGradient id="linear-gradient" x1="41.36" y1="12.12" x2="41.09" y2="32.1" gradientUnits="userSpaceOnUse">
      <stop offset="0" stop-color="#12daa8"/>
      <stop offset="1" stop-color="#12daa8"/>
    </linearGradient>
    <linearGradient id="linear-gradient-2" x1="81.91" y1="19.23" x2="80.94" y2="90.94" xlink:href="#linear-gradient"/>
    <linearGradient id="linear-gradient-3" x1="55.1" y1="13.72" x2="54.97" y2="23.71" xlink:href="#linear-gradient"/>
    <linearGradient id="linear-gradient-4" x1="53.5" y1="-2.97" x2="53.33" y2="9.39" xlink:href="#linear-gradient"/>
    <linearGradient id="linear-gradient-5" x1="51.01" y1="18.79" x2="50.04" y2="90.94" xlink:href="#linear-gradient"/>
    <linearGradient id="linear-gradient-6" x1="65.1" y1="3.1" x2="64.52" y2="46.23" xlink:href="#linear-gradient"/>
    <linearGradient id="linear-gradient-7" x1="88.95" y1="29.5" x2="1.72" y2="98.15" xlink:href="#linear-gradient"/>
  </defs>
  <g id="OBJECTS">
    <g>
      <path class="cls-1" d="M39.94,16.92c-3.48,0-6.29,2.82-6.29,6.29v8.79h8.79c3.48,0,6.29-2.82,6.29-6.29v-8.79h-8.79Z"/>
      <path class="cls-3" d="M96.91,36.31h-5.78s-1.07,4.7-3.83,11.89h2.28v8.04c0,3.18-2.57,5.75-5.75,5.75h-2.75c-.6,1.15-1.23,2.32-1.89,3.5.72-.32,1.52-.51,2.36-.51h8.04v8.04c0,3.18-2.57,5.75-5.75,5.75h-8.04v-7.56c-4.05,6.44-9.04,13.12-15.18,19.45h22.24c7.94,0,14.63-5.92,15.6-13.8l3.48-35.02c.29-2.97-2.03-5.54-5.01-5.54Z"/>
      <path class="cls-4" d="M54.39,16.12c-1.74,0-3.15,1.41-3.15,3.15v4.4h4.4c1.74,0,3.15-1.41,3.15-3.15v-4.4h-4.4Z"/>
      <path class="cls-2" d="M52.63,0c-2.15,0-3.89,1.74-3.89,3.89v5.44h5.44c2.15,0,3.89-1.74,3.89-3.89V0h-5.44Z"/>
      <path class="cls-6" d="M58.1,70.73c0-3.18,2.58-5.75,5.75-5.75h4.67c2.48-2.53,4.94-5.11,7.27-7.68v-3.35c0-3.18,2.57-5.75,5.75-5.75h2.03c3.49-4.43,6.21-8.54,7.57-11.89H15.38c-2.98,0-5.31,2.57-5.01,5.54l3.48,35.02c.97,7.88,7.66,13.8,15.6,13.8h11.74s7.59-6.55,16.91-15.43v-4.5ZM58.1,53.95c0-3.18,2.58-5.75,5.75-5.75h8.04v8.04c0,3.18-2.57,5.75-5.75,5.75h-8.04v-8.04ZM36.51,73.02c0,3.18-2.57,5.75-5.75,5.75h-8.04v-8.04c0-3.18,2.57-5.75,5.75-5.75h8.04v8.04ZM36.51,56.24c0,3.18-2.57,5.75-5.75,5.75h-8.04v-8.04c0-3.18,2.57-5.75,5.75-5.75h8.04v8.04ZM54.2,73.02c0,3.18-2.57,5.75-5.75,5.75h-8.04v-8.04c0-3.18,2.58-5.75,5.75-5.75h8.04v8.04ZM48.44,61.99h-8.04v-8.04c0-3.18,2.58-5.75,5.75-5.75h8.04v8.04c0,3.18-2.57,5.75-5.75,5.75Z"/>
      <path class="cls-7" d="M67.85,14.58l-15.01,23.77c-2.13,3.38.3,7.79,4.3,7.79h0c1.73,0,3.34-.88,4.27-2.33l15.23-23.77c2.17-3.38-.25-7.83-4.27-7.83h-.22c-1.75,0-3.37.9-4.3,2.37Z"/>
      <path class="cls-5" d="M7.65,66.86c-.86,2.91-1.48,5.92-1.9,8.92-.58,4.07-1.33,9.97,1.55,13.38,1.99,2.36,5.4,2.86,8.49,2.84,24.49-.2,45.47-18.18,60.35-35.98,3.25-3.89,6.3-7.94,9.18-12.11,1.33-1.93,2.63-3.89,3.89-5.87,1.19-1.88,2.91-3.96,3.7-6.04-5.22,13.93-14.95,26.86-24.84,37.74-8.37,9.2-17.78,17.49-28.13,24.41-8.4,5.61-20.77,14.62-31.53,12.12C2.2,104.83-.26,98.87.02,92.99c.83-17.14,7.63-26.13,7.63-26.13Z"/>
    </g>
  </g>
</svg>